<svg xmlns="http://www.w3.org/2000/svg" viewBox="0 0 32 32" width="32" height="32">
  <defs>
    <linearGradient id="web" x1="0" y1="0" x2="32" y2="32" gradientUnits="userSpaceOnUse">
      <stop offset="0" stop-color="#22d3e8"/>
      <stop offset="1" stop-color="#0057ff"/>
    </linearGradient>
  </defs>
  <rect width="32" height="32" rx="7" fill="#0a0a0a"/>
  <g fill="none" stroke="url(#web)" stroke-linecap="round" stroke-linejoin="round">
    <g stroke-width="1.4" opacity="0.9">
      <path d="M16 16 L16 4"/>
      <path d="M16 16 L26.4 10"/>
      <path d="M16 16 L26.4 22"/>
      <path d="M16 16 L16 28"/>
      <path d="M16 16 L5.6 22"/>
      <path d="M16 16 L5.6 10"/>
    </g>
    <g stroke-width="1.6">
      <path d="M16 9 L21.1 12 L21.1 20 L16 23 L10.9 20 L10.9 12 Z"/>
      <path d="M16 4 L26.4 10 L26.4 22 L16 28 L5.6 22 L5.6 10 Z" opacity="0.55"/>
    </g>
  </g>
  <circle cx="16" cy="16" r="1.8" fill="#22d3e8"/>
</svg>
